<svg xmlns="http://www.w3.org/2000/svg" width="25" height="30" viewBox="0 0 25 30">
  <g id="office-chair" transform="translate(-2)">
    <path id="Path_83" data-name="Path 83" d="M18.562,24.375H7.938a.938.938,0,1,1,0-1.875H18.562a.938.938,0,0,1,0,1.875Z" transform="translate(1.25 5.625)" fill="#0050a6"/>
    <path id="Path_84" data-name="Path 84" d="M20.029,16.25H7.377a2.188,2.188,0,0,1-2.155-2.562L7.287,1.813A2.183,2.183,0,0,1,9.442,0h8.521a2.181,2.181,0,0,1,2.155,1.814l2.065,11.875a2.187,2.187,0,0,1-2.154,2.561ZM9.442,1.875a.313.313,0,0,0-.309.259L7.068,14.009a.312.312,0,0,0,.069.255.305.305,0,0,0,.239.111H20.028a.3.3,0,0,0,.239-.111.31.31,0,0,0,.069-.255L18.27,2.134a.309.309,0,0,0-.306-.259Z" transform="translate(0.797)" fill="#0050a6"/>
    <path id="Path_85" data-name="Path 85" d="M12.188,25.5a.938.938,0,0,1-.937-.937V18.938a.938.938,0,0,1,1.875,0v5.625A.938.938,0,0,1,12.188,25.5Z" transform="translate(2.312 4.5)" fill="#0050a6"/>
    <path id="Path_86" data-name="Path 86" d="M23.063,20.875H4.937A.938.938,0,0,1,4,19.937v-2.5A3.44,3.44,0,0,1,7.438,14H20.562A3.44,3.44,0,0,1,24,17.438v2.5A.938.938,0,0,1,23.063,20.875ZM5.875,19h16.25V17.438a1.565,1.565,0,0,0-1.563-1.563H7.438a1.565,1.565,0,0,0-1.563,1.563Z" transform="translate(0.5 3.5)" fill="#0050a6"/>
    <path id="Path_87" data-name="Path 87" d="M19.438,19.875a.938.938,0,0,1-.937-.937v-3.75a3.44,3.44,0,0,1,3.438-3.438.938.938,0,1,1,0,1.875,1.565,1.565,0,0,0-1.562,1.563v3.75A.938.938,0,0,1,19.438,19.875Z" transform="translate(4.125 2.937)" fill="#0050a6"/>
    <path id="Path_88" data-name="Path 88" d="M5.438,19.875a.938.938,0,0,1-.937-.937v-3.75a1.565,1.565,0,0,0-1.563-1.563.938.938,0,0,1,0-1.875,3.44,3.44,0,0,1,3.438,3.438v3.75A.938.938,0,0,1,5.438,19.875Z" transform="translate(0 2.937)" fill="#0050a6"/>
  </g>
</svg>
