<svg xmlns="http://www.w3.org/2000/svg" width="24.122" height="26.2" viewBox="0 0 24.122 26.2">
  <g id="taxi" transform="translate(-20.199 0.1)">
    <g id="Group_56" data-name="Group 56" transform="translate(20.299 3.931)">
      <g id="Group_55" data-name="Group 55">
        <path id="Path_91" data-name="Path 91" d="M41.734,85.736l-.481-6.331A2.787,2.787,0,0,0,38.525,76.8H26.006a2.791,2.791,0,0,0-2.728,2.605L22.8,85.736a2.662,2.662,0,0,0-2.5,2.646v6.853a.743.743,0,0,0,.742.742h.481v2.15a.743.743,0,0,0,.742.742h3.613a.743.743,0,0,0,.742-.742v-2.15H37.9v2.15a.743.743,0,0,0,.742.742h3.613A.743.743,0,0,0,43,98.127v-2.15h.481a.743.743,0,0,0,.742-.742V88.382A2.652,2.652,0,0,0,41.734,85.736ZM24.762,79.523a1.3,1.3,0,0,1,1.249-1.233H38.525a1.3,1.3,0,0,1,1.249,1.233l.456,5.983a55.659,55.659,0,0,0-15.917,0Zm.379,17.862H23.012V95.978h2.129Zm16.378,0H39.39V95.978h2.129Zm1.228-2.892H21.788V88.382a1.151,1.151,0,0,1,.952-1.131,54.409,54.409,0,0,1,19.055,0,1.147,1.147,0,0,1,.952,1.131Z" transform="translate(-20.299 -76.8)" fill="#0050a6" stroke="#0050a6" stroke-width="0.2"/>
      </g>
    </g>
    <g id="Group_58" data-name="Group 58" transform="translate(23.319 15.431)">
      <g id="Group_57" data-name="Group 57" transform="translate(0)">
        <path id="Path_92" data-name="Path 92" d="M81.848,301.5a2.549,2.549,0,1,0,2.549,2.549A2.549,2.549,0,0,0,81.848,301.5Zm0,3.618a1.065,1.065,0,1,1,1.065-1.064A1.064,1.064,0,0,1,81.848,305.118Z" transform="translate(-79.299 -301.5)" fill="#0050a6" stroke="#0050a6" stroke-width="0.2"/>
      </g>
    </g>
    <g id="Group_60" data-name="Group 60" transform="translate(36.114 15.431)">
      <g id="Group_59" data-name="Group 59">
        <path id="Path_93" data-name="Path 93" d="M331.848,301.5a2.549,2.549,0,1,0,2.549,2.549A2.549,2.549,0,0,0,331.848,301.5Zm0,3.618a1.065,1.065,0,1,1,1.065-1.064A1.064,1.064,0,0,1,331.848,305.118Z" transform="translate(-329.299 -301.5)" fill="#0050a6" stroke="#0050a6" stroke-width="0.2"/>
      </g>
    </g>
    <g id="Group_62" data-name="Group 62" transform="translate(27.469)">
      <g id="Group_61" data-name="Group 61">
        <path id="Path_94" data-name="Path 94" d="M160.4,0V.583h.86V3.03h.676V.583h.86V0Z" transform="translate(-160.399)" fill="#0050a6" stroke="#0050a6" stroke-width="0.2"/>
      </g>
    </g>
    <g id="Group_64" data-name="Group 64" transform="translate(29.742)">
      <g id="Group_63" data-name="Group 63">
        <path id="Path_95" data-name="Path 95" d="M206.764,0h-.655L204.8,3.03h.722l.281-.655h1.269l.282.655h.722Zm-.7,1.781.379-.88.379.88Z" transform="translate(-204.799)" fill="#0050a6" stroke="#0050a6" stroke-width="0.2"/>
      </g>
    </g>
    <g id="Group_66" data-name="Group 66" transform="translate(33.038)">
      <g id="Group_65" data-name="Group 65">
        <path id="Path_96" data-name="Path 96" d="M271.1,1.464,272.05,0h-.814l-.578.9-.578-.9h-.809l.947,1.479L269.2,3.03h.819l.64-1,.645,1h.824Z" transform="translate(-269.199)" fill="#0050a6" stroke="#0050a6" stroke-width="0.2"/>
      </g>
    </g>
    <g id="Group_68" data-name="Group 68" transform="translate(36.385)">
      <g id="Group_67" data-name="Group 67">
        <rect id="Rectangle_2914" data-name="Rectangle 2914" width="0.676" height="3.03" fill="#0050a6" stroke="#0050a6" stroke-width="0.2"/>
      </g>
    </g>
    <g id="Group_70" data-name="Group 70" transform="translate(29.691 18.722)">
      <g id="Group_69" data-name="Group 69" transform="translate(0)">
        <path id="Path_97" data-name="Path 97" d="M208.211,365.8h-3.67a.742.742,0,1,0,0,1.484h3.67a.742.742,0,1,0,0-1.484Z" transform="translate(-203.799 -365.8)" fill="#0050a6" stroke="#0050a6" stroke-width="0.2"/>
      </g>
    </g>
    <g id="Group_72" data-name="Group 72" transform="translate(29.691 15.759)">
      <g id="Group_71" data-name="Group 71" transform="translate(0)">
        <path id="Path_98" data-name="Path 98" d="M208.211,307.9h-3.67a.742.742,0,1,0,0,1.484h3.67a.742.742,0,0,0,0-1.484Z" transform="translate(-203.799 -307.9)" fill="#0050a6" stroke="#0050a6" stroke-width="0.2"/>
      </g>
    </g>
  </g>
</svg>
